<mxfile host="app.diagrams.net" modified="2023-11-04T00:43:39.339Z" agent="Mozilla/5.0 (Windows NT 10.0; Win64; x64) AppleWebKit/537.36 (KHTML, like Gecko) Chrome/119.0.0.0 Safari/537.36" etag="ezKjx8Erf0VXjwYKaPiH" version="22.0.8" type="github" pages="2">
  <diagram name="Página-1" id="Km7TS0mzY9OoCIneV7e0">
    <mxGraphModel dx="819" dy="451" grid="1" gridSize="10" guides="1" tooltips="1" connect="1" arrows="1" fold="1" page="1" pageScale="1" pageWidth="1100" pageHeight="850" math="0" shadow="0">
      <root>
        <mxCell id="0" />
        <mxCell id="1" parent="0" />
        <mxCell id="U7ibFPoD31fuwft3YfZi-3" value="Averías en motocicletas " style="whiteSpace=wrap;strokeWidth=3;labelBackgroundColor=none;fillColor=#FAE5C7;strokeColor=#0F8B8D;fontColor=#143642;" parent="1" vertex="1">
          <mxGeometry x="760" y="330" width="120" height="60" as="geometry" />
        </mxCell>
        <mxCell id="U7ibFPoD31fuwft3YfZi-4" value="" style="edgeStyle=none;strokeWidth=4;labelBackgroundColor=none;strokeColor=#A8201A;fontColor=default;" parent="1" target="U7ibFPoD31fuwft3YfZi-3" edge="1">
          <mxGeometry width="100" height="100" relative="1" as="geometry">
            <mxPoint x="200" y="360" as="sourcePoint" />
            <mxPoint x="320" y="310" as="targetPoint" />
          </mxGeometry>
        </mxCell>
        <mxCell id="U7ibFPoD31fuwft3YfZi-23" value="Tiempos &#xa;prolongados entre&#xa;mantenimientos" style="text;spacingTop=-5;fontSize=8;align=center;verticalAlign=middle;points=[];labelBackgroundColor=none;fontColor=#143642;" parent="1" vertex="1">
          <mxGeometry x="86.45833333333321" y="380.0000000000002" width="30" height="19.999999999999886" as="geometry" />
        </mxCell>
        <mxCell id="U7ibFPoD31fuwft3YfZi-24" value="No hay control de &#xa;frecuencia de &#xa;mantenimientos " style="text;spacingTop=-5;fontSize=8;align=center;verticalAlign=middle;points=[];labelBackgroundColor=none;fontColor=#143642;" parent="1" vertex="1">
          <mxGeometry x="40.00833333333317" y="451.9999999999999" width="30" height="19.999999999999886" as="geometry" />
        </mxCell>
        <mxCell id="U7ibFPoD31fuwft3YfZi-25" value="Uso extendido &#xa;en horas de utilidad &#xa;de un repuesto &#xa;generando un exceso" style="text;spacingTop=-5;fontSize=6;align=center;verticalAlign=middle;points=[];labelBackgroundColor=none;fontColor=#143642;" parent="1" vertex="1">
          <mxGeometry x="193.43833333333316" y="285.98" width="30" height="19.999999999999886" as="geometry" />
        </mxCell>
        <mxCell id="U7ibFPoD31fuwft3YfZi-26" value="Accidentes&#xa;debido al fallo &#xa;de la motocicleta" style="text;spacingTop=-5;fontSize=6;align=center;verticalAlign=middle;points=[];labelBackgroundColor=none;fontColor=#143642;" parent="1" vertex="1">
          <mxGeometry x="253.4438888888888" y="285.97777777777776" width="30" height="19.999999999999886" as="geometry" />
        </mxCell>
        <mxCell id="U7ibFPoD31fuwft3YfZi-27" value="Daños colaterales generados por&#xa;fallas exhaustivas " style="text;spacingTop=-5;fontSize=6;align=center;verticalAlign=middle;points=[];labelBackgroundColor=none;fontColor=#143642;" parent="1" vertex="1">
          <mxGeometry x="223.44388888888858" y="339.99777777777786" width="30" height="19.999999999999886" as="geometry" />
        </mxCell>
        <mxCell id="U7ibFPoD31fuwft3YfZi-28" value="Costos elevados &#xa;efectuando mantenimientos&#xa;correctivos" style="text;spacingTop=-5;fontSize=6;align=center;verticalAlign=middle;points=[];labelBackgroundColor=none;fontColor=#143642;" parent="1" vertex="1">
          <mxGeometry x="116.45833333333321" y="346.52666666666653" width="30" height="19.999999999999886" as="geometry" />
        </mxCell>
        <mxCell id="U7ibFPoD31fuwft3YfZi-29" value="Deterioro &#xa;de la motocicleta &#xa;en general" style="text;spacingTop=-5;fontSize=6;align=center;verticalAlign=middle;points=[];labelBackgroundColor=none;fontColor=#143642;" parent="1" vertex="1">
          <mxGeometry x="136.45833333333306" y="409.8666666666667" width="30" height="19.999999999999886" as="geometry" />
        </mxCell>
        <mxCell id="U7ibFPoD31fuwft3YfZi-30" value="Personal no &#xa;capacitado para &#xa;llevar un plan de &#xa;mantenimiento" style="text;spacingTop=-5;fontSize=6;align=center;verticalAlign=middle;points=[];labelBackgroundColor=none;fontColor=#143642;" parent="1" vertex="1">
          <mxGeometry x="101.46388888888879" y="480.00222222222214" width="30" height="19.999999999999886" as="geometry" />
        </mxCell>
        <mxCell id="U7ibFPoD31fuwft3YfZi-31" value="Aumenta el riesgo&#xa;de sufrir un siniestro" style="text;spacingTop=-5;fontSize=6;align=center;verticalAlign=middle;points=[];labelBackgroundColor=none;fontColor=#143642;" parent="1" vertex="1">
          <mxGeometry x="86.45388888888863" y="425.00222222222226" width="30" height="19.999999999999886" as="geometry" />
        </mxCell>
        <mxCell id="U7ibFPoD31fuwft3YfZi-32" value="Ineficiencia en&#xa;el proceso" style="text;spacingTop=-5;fontSize=6;align=center;verticalAlign=middle;points=[];labelBackgroundColor=none;fontColor=#143642;" parent="1" vertex="1">
          <mxGeometry x="239.48166666666654" y="471.9966666666666" width="30" height="19.999999999999886" as="geometry" />
        </mxCell>
        <mxCell id="U7ibFPoD31fuwft3YfZi-33" value="Averías &#xa;imprevistas" style="text;spacingTop=-5;fontSize=8;align=center;verticalAlign=middle;points=[];labelBackgroundColor=none;fontColor=#143642;" parent="1" vertex="1">
          <mxGeometry x="370.00166666666655" y="273.0022222222223" width="30" height="19.999999999999886" as="geometry" />
        </mxCell>
        <mxCell id="U7ibFPoD31fuwft3YfZi-34" value="Desactualización&#xa; en técnicas y métodos&#xa;para una calidad de mtto" style="text;spacingTop=-5;fontSize=8;align=center;verticalAlign=middle;points=[];labelBackgroundColor=none;fontColor=#143642;" parent="1" vertex="1">
          <mxGeometry x="261.46000000000004" y="439.86000000000007" width="13.96" height="20" as="geometry" />
        </mxCell>
        <mxCell id="U7ibFPoD31fuwft3YfZi-58" value="Su diseño y modelo&#xa;de motocicleta no &#xa;es la mas apta para&#xa;cierta operación" style="text;spacingTop=-5;fontSize=8;align=center;verticalAlign=middle;points=[];labelBackgroundColor=none;fontColor=#143642;" parent="1" vertex="1">
          <mxGeometry x="623.89" y="239.99999999999997" width="30" height="19.999999999999886" as="geometry" />
        </mxCell>
        <mxCell id="U7ibFPoD31fuwft3YfZi-59" value="Mal uso y forma &#xa;de conducir de &#xa;cada usuario" style="text;spacingTop=-5;fontSize=8;align=center;verticalAlign=middle;points=[];labelBackgroundColor=none;fontColor=#143642;" parent="1" vertex="1">
          <mxGeometry x="425" y="289.99999999999983" width="30" height="19.999999999999886" as="geometry" />
        </mxCell>
        <mxCell id="U7ibFPoD31fuwft3YfZi-60" value="Ineficiencia &#xa;generada&#xa;en la operación" style="text;spacingTop=-5;fontSize=8;align=center;verticalAlign=middle;points=[];labelBackgroundColor=none;fontColor=#143642;" parent="1" vertex="1">
          <mxGeometry x="319.99999999999994" y="410.9999999999998" width="30" height="19.999999999999886" as="geometry" />
        </mxCell>
        <mxCell id="U7ibFPoD31fuwft3YfZi-61" value="El sistema eléctrico&#xa;sufre recalentamiento&#xa;debido a altas temperaturas&#xa;ambiente" style="text;spacingTop=-5;fontSize=6;align=center;verticalAlign=middle;points=[];labelBackgroundColor=none;fontColor=#143642;" parent="1" vertex="1">
          <mxGeometry x="544.68" y="220" width="31.98" height="20" as="geometry" />
        </mxCell>
        <mxCell id="U7ibFPoD31fuwft3YfZi-62" value="El sistema mecanico &#xa;falla repetitivamente&#xa;debido a la zona de uso" style="text;spacingTop=-5;fontSize=6;align=center;verticalAlign=middle;points=[];labelBackgroundColor=none;fontColor=#143642;" parent="1" vertex="1">
          <mxGeometry x="576.6599999999999" y="279.9999999999999" width="30" height="19.999999999999886" as="geometry" />
        </mxCell>
        <mxCell id="U7ibFPoD31fuwft3YfZi-63" value="Usuarios abusan del uso de &#xa;sus motocicletas" style="text;spacingTop=-5;fontSize=6;align=center;verticalAlign=middle;points=[];labelBackgroundColor=none;fontColor=#143642;" parent="1" vertex="1">
          <mxGeometry x="468.0655555555554" y="326.5277777777777" width="30" height="19.999999999999886" as="geometry" />
        </mxCell>
        <mxCell id="U7ibFPoD31fuwft3YfZi-64" value="Requerimiento de &#xa;reparación con mayor &#xa;frecuencia generando &#xa;paros inesperados" style="text;spacingTop=-5;fontSize=6;align=center;verticalAlign=middle;points=[];labelBackgroundColor=none;fontColor=#143642;" parent="1" vertex="1">
          <mxGeometry x="349.99555555555554" y="445.0022222222221" width="30" height="19.999999999999886" as="geometry" />
        </mxCell>
        <mxCell id="U7ibFPoD31fuwft3YfZi-65" value="La sustitución de los repuestos &#xa;son mas frecuentes de lo normal &#xa;causando averías mayores" style="text;spacingTop=-5;fontSize=6;align=center;verticalAlign=middle;points=[];labelBackgroundColor=none;fontColor=#143642;" parent="1" vertex="1">
          <mxGeometry x="359.8255555555554" y="380.0022222222222" width="30" height="19.999999999999886" as="geometry" />
        </mxCell>
        <mxCell id="U7ibFPoD31fuwft3YfZi-66" value="Costos elevados&#xa;para importar ciertos&#xa;repuestos originales" style="text;spacingTop=-5;fontSize=6;align=center;verticalAlign=middle;points=[];labelBackgroundColor=none;fontColor=#143642;" parent="1" vertex="1">
          <mxGeometry x="616.3677777777776" y="339.9988888888888" width="30" height="19.999999999999886" as="geometry" />
        </mxCell>
        <mxCell id="U7ibFPoD31fuwft3YfZi-67" value="Existes varios repuestos&#xa;genéricos de baja calidad" style="text;spacingTop=-5;fontSize=6;align=center;verticalAlign=middle;points=[];labelBackgroundColor=none;fontColor=#143642;" parent="1" vertex="1">
          <mxGeometry x="646.37" y="287.09" width="33.37" height="18.89" as="geometry" />
        </mxCell>
        <mxCell id="U7ibFPoD31fuwft3YfZi-68" value="No hay &#xa;cobertura&#xa;para&#xa;garantías" style="text;spacingTop=-5;fontSize=6;align=center;verticalAlign=middle;points=[];labelBackgroundColor=none;fontColor=#143642;" parent="1" vertex="1">
          <mxGeometry x="438.06333333333316" y="405.4133333333334" width="30" height="19.999999999999886" as="geometry" />
        </mxCell>
        <mxCell id="U7ibFPoD31fuwft3YfZi-69" value="Mayor emisión de gases &#xa;contaminantes" style="text;spacingTop=-5;fontSize=6;align=center;verticalAlign=middle;points=[];labelBackgroundColor=none;fontColor=#143642;" parent="1" vertex="1">
          <mxGeometry x="438.0633333333333" y="449.9966666666665" width="30" height="19.999999999999886" as="geometry" />
        </mxCell>
        <mxCell id="U7ibFPoD31fuwft3YfZi-70" value="Aumento de consumo&#xa; de combustible" style="text;spacingTop=-5;fontSize=6;align=center;verticalAlign=middle;points=[];labelBackgroundColor=none;fontColor=#143642;" parent="1" vertex="1">
          <mxGeometry x="476.9833333333331" y="509.99666666666667" width="30" height="19.999999999999886" as="geometry" />
        </mxCell>
        <mxCell id="U7ibFPoD31fuwft3YfZi-71" value="No hay disponibilidad en&#xa;repuestos de ciertas marcas" style="text;spacingTop=-5;fontSize=8;align=center;verticalAlign=middle;points=[];labelBackgroundColor=none;fontColor=#143642;" parent="1" vertex="1">
          <mxGeometry x="672.3733333333333" y="310.0022222222222" width="30" height="19.999999999999886" as="geometry" />
        </mxCell>
        <mxCell id="U7ibFPoD31fuwft3YfZi-72" value="Impacto negativo&#xa;en el medio &#xa;ambiente" style="text;spacingTop=-5;fontSize=8;align=center;verticalAlign=middle;points=[];labelBackgroundColor=none;fontColor=#143642;" parent="1" vertex="1">
          <mxGeometry x="468.0633333333333" y="480.00222222222243" width="30" height="19.999999999999886" as="geometry" />
        </mxCell>
        <mxCell id="U7ibFPoD31fuwft3YfZi-73" value="Bajos &#xa;costos" style="text;spacingTop=-5;fontSize=8;align=center;verticalAlign=middle;points=[];labelBackgroundColor=none;fontColor=#143642;" parent="1" vertex="1">
          <mxGeometry x="510.0033333333333" y="369.862222222222" width="30" height="19.999999999999886" as="geometry" />
        </mxCell>
        <mxCell id="U7ibFPoD31fuwft3YfZi-82" value="Ineficiencia &#xa;del personal &#xa;de atención con&#xa; el cliente" style="text;spacingTop=-5;fontSize=8;align=center;verticalAlign=middle;points=[];labelBackgroundColor=none;fontColor=#143642;" parent="1" vertex="1">
          <mxGeometry x="525.833333333333" y="449.9977777777774" width="30" height="19.999999999999886" as="geometry" />
        </mxCell>
        <mxCell id="U7ibFPoD31fuwft3YfZi-83" value="Instalaciones y equipos&#xa; inadecuados" style="text;spacingTop=-5;fontSize=6;align=center;verticalAlign=middle;points=[];labelBackgroundColor=none;fontColor=#143642;" parent="1" vertex="1">
          <mxGeometry x="553.3733333333331" y="400.0044444444441" width="30" height="19.999999999999886" as="geometry" />
        </mxCell>
        <mxCell id="U7ibFPoD31fuwft3YfZi-84" value=" Profesional &#xa;no calificado&#xa;para el cargo" style="text;spacingTop=-5;fontSize=6;align=center;verticalAlign=middle;points=[];labelBackgroundColor=none;fontColor=#143642;" parent="1" vertex="1">
          <mxGeometry x="606.6633333333331" y="401.9544444444442" width="30" height="19.999999999999886" as="geometry" />
        </mxCell>
        <mxCell id="U7ibFPoD31fuwft3YfZi-85" value="Uso de lenguaje &#xa;inapropiado" style="text;spacingTop=-5;fontSize=6;align=center;verticalAlign=middle;points=[];labelBackgroundColor=none;fontColor=#143642;" parent="1" vertex="1">
          <mxGeometry x="576.6588888888887" y="471.99999999999983" width="30" height="19.999999999999886" as="geometry" />
        </mxCell>
        <mxCell id="U7ibFPoD31fuwft3YfZi-86" value="uso de herramienta &#xa;inadecuada" style="text;spacingTop=-5;fontSize=6;align=center;verticalAlign=middle;points=[];labelBackgroundColor=none;fontColor=#143642;" parent="1" vertex="1">
          <mxGeometry x="709.9966666666664" y="389.86111111111086" width="30" height="19.999999999999886" as="geometry" />
        </mxCell>
        <mxCell id="U7ibFPoD31fuwft3YfZi-87" value="Mala &#xa;organización  &#xa;en area de trabajo" style="text;spacingTop=-5;fontSize=6;align=center;verticalAlign=middle;points=[];labelBackgroundColor=none;fontColor=#143642;" parent="1" vertex="1">
          <mxGeometry x="666.6666666666664" y="400.00111111111096" width="30" height="19.999999999999886" as="geometry" />
        </mxCell>
        <mxCell id="U7ibFPoD31fuwft3YfZi-88" value="Desconocimiento de mantenimiento" style="whiteSpace=wrap;strokeWidth=2;labelBackgroundColor=none;fillColor=#FAE5C7;strokeColor=#0F8B8D;fontColor=#143642;" parent="1" vertex="1">
          <mxGeometry x="204.4583333333332" y="150" width="120" height="60" as="geometry" />
        </mxCell>
        <mxCell id="U7ibFPoD31fuwft3YfZi-89" value="No hay seguimiento de los mantenimientos" style="whiteSpace=wrap;strokeWidth=2;labelBackgroundColor=none;fillColor=#FAE5C7;strokeColor=#0F8B8D;fontColor=#143642;" parent="1" vertex="1">
          <mxGeometry x="109.50833333333323" y="505" width="120" height="60" as="geometry" />
        </mxCell>
        <mxCell id="U7ibFPoD31fuwft3YfZi-90" value="Averías en motocicletas " style="whiteSpace=wrap;strokeWidth=3;labelBackgroundColor=none;fillColor=#FAE5C7;strokeColor=#0F8B8D;fontColor=#143642;" parent="1" vertex="1">
          <mxGeometry x="760" y="330" width="120" height="60" as="geometry" />
        </mxCell>
        <mxCell id="U7ibFPoD31fuwft3YfZi-91" value="" style="edgeStyle=none;strokeWidth=4;labelBackgroundColor=none;strokeColor=#A8201A;fontColor=default;" parent="1" target="U7ibFPoD31fuwft3YfZi-90" edge="1">
          <mxGeometry width="100" height="100" relative="1" as="geometry">
            <mxPoint x="200" y="360" as="sourcePoint" />
            <mxPoint x="320" y="310" as="targetPoint" />
          </mxGeometry>
        </mxCell>
        <mxCell id="U7ibFPoD31fuwft3YfZi-92" value="" style="edgeStyle=none;exitX=0.5;exitY=1;strokeWidth=3;labelBackgroundColor=none;strokeColor=#A8201A;fontColor=default;" parent="1" source="U7ibFPoD31fuwft3YfZi-88" edge="1">
          <mxGeometry width="100" height="100" relative="1" as="geometry">
            <mxPoint x="176.45833333333323" y="270" as="sourcePoint" />
            <mxPoint x="340" y="360" as="targetPoint" />
          </mxGeometry>
        </mxCell>
        <mxCell id="U7ibFPoD31fuwft3YfZi-93" value="" style="edgeStyle=none;exitX=0.461;exitY=0.007;strokeWidth=3;labelBackgroundColor=none;strokeColor=#A8201A;fontColor=default;exitDx=0;exitDy=0;exitPerimeter=0;" parent="1" edge="1" source="U7ibFPoD31fuwft3YfZi-89">
          <mxGeometry width="100" height="100" relative="1" as="geometry">
            <mxPoint x="176.45833333333323" y="480" as="sourcePoint" />
            <mxPoint x="236.45833333333323" y="360" as="targetPoint" />
          </mxGeometry>
        </mxCell>
        <mxCell id="U7ibFPoD31fuwft3YfZi-111" value="Detección inoportuna&#xa; al desgaste " style="text;spacingTop=-5;fontSize=8;align=center;verticalAlign=middle;points=[];labelBackgroundColor=none;fontColor=#143642;" parent="1" vertex="1">
          <mxGeometry x="79.51" y="250.00000000000003" width="105" height="20" as="geometry" />
        </mxCell>
        <mxCell id="U7ibFPoD31fuwft3YfZi-112" value="Los daños se &#xa;multiplican debido a ejecutar&#xa; una reparación tardía" style="text;spacingTop=-5;fontSize=6;align=center;verticalAlign=middle;points=[];labelBackgroundColor=none;fontColor=#143642;" parent="1" vertex="1">
          <mxGeometry x="171.45833333333331" y="219.9999999999999" width="30" height="19.999999999999886" as="geometry" />
        </mxCell>
        <mxCell id="U7ibFPoD31fuwft3YfZi-113" value="Distinta calidad de motocicletas" style="whiteSpace=wrap;strokeWidth=2;labelBackgroundColor=none;fillColor=#FAE5C7;strokeColor=#0F8B8D;fontColor=#143642;" parent="1" vertex="1">
          <mxGeometry x="420" y="149.99999999999994" width="120" height="60" as="geometry" />
        </mxCell>
        <mxCell id="U7ibFPoD31fuwft3YfZi-114" value="Baja calidad de los repuestos" style="whiteSpace=wrap;strokeWidth=2;labelBackgroundColor=none;fillColor=#FAE5C7;strokeColor=#0F8B8D;fontColor=#143642;" parent="1" vertex="1">
          <mxGeometry x="305" y="505" width="120" height="60" as="geometry" />
        </mxCell>
        <mxCell id="U7ibFPoD31fuwft3YfZi-115" value="" style="edgeStyle=none;exitX=0.5;exitY=1;strokeWidth=3;labelBackgroundColor=none;strokeColor=#A8201A;fontColor=default;" parent="1" source="U7ibFPoD31fuwft3YfZi-113" edge="1">
          <mxGeometry width="100" height="100" relative="1" as="geometry">
            <mxPoint x="400" y="269.9999999999999" as="sourcePoint" />
            <mxPoint x="570" y="360" as="targetPoint" />
          </mxGeometry>
        </mxCell>
        <mxCell id="U7ibFPoD31fuwft3YfZi-116" value="" style="edgeStyle=none;exitX=0.608;exitY=0.012;strokeWidth=3;labelBackgroundColor=none;strokeColor=#A8201A;fontColor=default;exitDx=0;exitDy=0;exitPerimeter=0;" parent="1" edge="1" source="U7ibFPoD31fuwft3YfZi-114">
          <mxGeometry width="100" height="100" relative="1" as="geometry">
            <mxPoint x="400.0000000000001" y="479.99999999999994" as="sourcePoint" />
            <mxPoint x="460" y="359.99999999999994" as="targetPoint" />
          </mxGeometry>
        </mxCell>
        <mxCell id="U7ibFPoD31fuwft3YfZi-130" value="" style="edgeStyle=none;endArrow=none;labelBackgroundColor=none;strokeColor=#A8201A;fontColor=default;" parent="1" edge="1">
          <mxGeometry width="100" height="100" relative="1" as="geometry">
            <mxPoint x="459.58333333333326" y="400.047619047619" as="sourcePoint" />
            <mxPoint x="460" y="399.99999999999994" as="targetPoint" />
          </mxGeometry>
        </mxCell>
        <mxCell id="U7ibFPoD31fuwft3YfZi-134" value="Usuarios guardan sus motocicletas&#xa;generando deterioro y fallas a la hora&#xa; de usarlas nuevamente " style="text;spacingTop=-5;fontSize=6;align=center;verticalAlign=middle;points=[];labelBackgroundColor=none;fontColor=#143642;" parent="1" vertex="1">
          <mxGeometry x="424.9955555555555" y="249.99777777777774" width="30" height="19.999999999999886" as="geometry" />
        </mxCell>
        <mxCell id="U7ibFPoD31fuwft3YfZi-135" value="Piezas usadas&#xa;con defectos" style="text;spacingTop=-5;fontSize=6;align=center;verticalAlign=middle;points=[];labelBackgroundColor=none;fontColor=#143642;" parent="1" vertex="1">
          <mxGeometry x="480" y="400" width="30" height="20.01" as="geometry" />
        </mxCell>
        <mxCell id="U7ibFPoD31fuwft3YfZi-136" value="No cumplen con las espectatívas del cliente en términos de calidad de servicio" style="whiteSpace=wrap;strokeWidth=2;labelBackgroundColor=none;fillColor=#FAE5C7;strokeColor=#0F8B8D;fontColor=#143642;" parent="1" vertex="1">
          <mxGeometry x="552.373333333333" y="491.9977777777775" width="120" height="60" as="geometry" />
        </mxCell>
        <mxCell id="U7ibFPoD31fuwft3YfZi-137" value="" style="edgeStyle=none;exitX=0.5;exitY=0;strokeWidth=3;labelBackgroundColor=none;strokeColor=#A8201A;fontColor=default;exitDx=0;exitDy=0;" parent="1" edge="1" source="U7ibFPoD31fuwft3YfZi-136">
          <mxGeometry width="100" height="100" relative="1" as="geometry">
            <mxPoint x="615.8333333333333" y="481.52777777777754" as="sourcePoint" />
            <mxPoint x="675.8333333333331" y="361.52777777777754" as="targetPoint" />
          </mxGeometry>
        </mxCell>
        <mxCell id="U7ibFPoD31fuwft3YfZi-142" value="Reemplazo de &#xa;un repuesto a destiempo" style="text;spacingTop=-5;fontSize=8;align=center;verticalAlign=middle;points=[];labelBackgroundColor=none;fontColor=#143642;" parent="1" vertex="1">
          <mxGeometry x="131.45999999999998" y="312" width="40" height="20" as="geometry" />
        </mxCell>
        <mxCell id="U7ibFPoD31fuwft3YfZi-144" value="No hay atención &#xa;oportuna" style="text;spacingTop=-5;fontSize=6;align=center;verticalAlign=middle;points=[];labelBackgroundColor=none;fontColor=#143642;" parent="1" vertex="1">
          <mxGeometry x="576.6588888888887" y="429.85999999999984" width="30" height="19.999999999999886" as="geometry" />
        </mxCell>
        <mxCell id="U7ibFPoD31fuwft3YfZi-145" value="Bajo desempeño&#xa;por escasez de motivación &#xa;" style="text;spacingTop=-5;fontSize=8;align=center;verticalAlign=middle;points=[];labelBackgroundColor=none;fontColor=#143642;" parent="1" vertex="1">
          <mxGeometry x="750" y="439.86" width="30" height="20.14" as="geometry" />
        </mxCell>
        <mxCell id="U7ibFPoD31fuwft3YfZi-149" value="Seguros no pagan&#xa;por faltas de &#xa;mantenimientos" style="text;spacingTop=-5;fontSize=6;align=center;verticalAlign=middle;points=[];labelBackgroundColor=none;fontColor=#143642;" parent="1" vertex="1">
          <mxGeometry x="249.46166666666653" y="390.9966666666666" width="30" height="19.999999999999886" as="geometry" />
        </mxCell>
        <mxCell id="U7ibFPoD31fuwft3YfZi-152" value="Interrupción en &#xa;operación generando &#xa;perdidas de tiempo y &#xa;costos" style="text;spacingTop=-5;fontSize=6;align=center;verticalAlign=middle;points=[];labelBackgroundColor=none;fontColor=#143642;" parent="1" vertex="1">
          <mxGeometry x="339.99833333333316" y="230" width="30" height="19.999999999999886" as="geometry" />
        </mxCell>
        <mxCell id="U7ibFPoD31fuwft3YfZi-153" value="Incremento en la&#xa;demanda de&#xa;repuestos" style="text;spacingTop=-5;fontSize=6;align=center;verticalAlign=middle;points=[];labelBackgroundColor=none;fontColor=#143642;" parent="1" vertex="1">
          <mxGeometry x="359.82833333333315" y="310" width="30" height="19.999999999999886" as="geometry" />
        </mxCell>
        <mxCell id="InhwRtr-Dw7gMui_zqvM-3" value="" style="endArrow=classic;html=1;rounded=0;exitX=1.139;exitY=0.5;exitDx=0;exitDy=0;exitPerimeter=0;" parent="1" source="U7ibFPoD31fuwft3YfZi-82" edge="1">
          <mxGeometry width="50" height="50" relative="1" as="geometry">
            <mxPoint x="570" y="460" as="sourcePoint" />
            <mxPoint x="626" y="461" as="targetPoint" />
          </mxGeometry>
        </mxCell>
        <mxCell id="InhwRtr-Dw7gMui_zqvM-4" value="" style="endArrow=classic;html=1;rounded=0;exitX=0.591;exitY=0.971;exitDx=0;exitDy=0;exitPerimeter=0;" parent="1" source="U7ibFPoD31fuwft3YfZi-144" edge="1">
          <mxGeometry width="50" height="50" relative="1" as="geometry">
            <mxPoint x="610" y="480" as="sourcePoint" />
            <mxPoint x="600" y="460" as="targetPoint" />
          </mxGeometry>
        </mxCell>
        <mxCell id="InhwRtr-Dw7gMui_zqvM-5" value="" style="endArrow=classic;html=1;rounded=0;exitX=0.792;exitY=0.107;exitDx=0;exitDy=0;exitPerimeter=0;" parent="1" source="U7ibFPoD31fuwft3YfZi-85" edge="1">
          <mxGeometry width="50" height="50" relative="1" as="geometry">
            <mxPoint x="610" y="480" as="sourcePoint" />
            <mxPoint x="609" y="460" as="targetPoint" />
          </mxGeometry>
        </mxCell>
        <mxCell id="InhwRtr-Dw7gMui_zqvM-11" value="" style="endArrow=classic;html=1;rounded=0;exitX=-0.333;exitY=0.007;exitDx=0;exitDy=0;exitPerimeter=0;" parent="1" source="U7ibFPoD31fuwft3YfZi-145" edge="1">
          <mxGeometry width="50" height="50" relative="1" as="geometry">
            <mxPoint x="730" y="440" as="sourcePoint" />
            <mxPoint x="637" y="440" as="targetPoint" />
          </mxGeometry>
        </mxCell>
        <mxCell id="InhwRtr-Dw7gMui_zqvM-12" value="" style="endArrow=classic;html=1;rounded=0;exitX=0.248;exitY=0.959;exitDx=0;exitDy=0;exitPerimeter=0;" parent="1" source="U7ibFPoD31fuwft3YfZi-86" edge="1">
          <mxGeometry width="50" height="50" relative="1" as="geometry">
            <mxPoint x="650" y="490" as="sourcePoint" />
            <mxPoint x="700" y="440" as="targetPoint" />
          </mxGeometry>
        </mxCell>
        <mxCell id="InhwRtr-Dw7gMui_zqvM-13" value="" style="endArrow=classic;html=1;rounded=0;exitX=0.232;exitY=0.995;exitDx=0;exitDy=0;exitPerimeter=0;" parent="1" source="U7ibFPoD31fuwft3YfZi-87" edge="1">
          <mxGeometry width="50" height="50" relative="1" as="geometry">
            <mxPoint x="610" y="480" as="sourcePoint" />
            <mxPoint x="660" y="440" as="targetPoint" />
          </mxGeometry>
        </mxCell>
        <mxCell id="InhwRtr-Dw7gMui_zqvM-14" value="" style="endArrow=classic;html=1;rounded=0;exitX=0.58;exitY=0.043;exitDx=0;exitDy=0;exitPerimeter=0;" parent="1" source="U7ibFPoD31fuwft3YfZi-84" edge="1">
          <mxGeometry width="50" height="50" relative="1" as="geometry">
            <mxPoint x="600" y="430" as="sourcePoint" />
            <mxPoint x="650" y="380" as="targetPoint" />
          </mxGeometry>
        </mxCell>
        <mxCell id="InhwRtr-Dw7gMui_zqvM-15" value="" style="endArrow=classic;html=1;rounded=0;exitX=0.8;exitY=-0.012;exitDx=0;exitDy=0;exitPerimeter=0;" parent="1" source="U7ibFPoD31fuwft3YfZi-83" edge="1">
          <mxGeometry width="50" height="50" relative="1" as="geometry">
            <mxPoint x="600" y="400" as="sourcePoint" />
            <mxPoint x="620" y="380" as="targetPoint" />
          </mxGeometry>
        </mxCell>
        <mxCell id="InhwRtr-Dw7gMui_zqvM-16" value="" style="endArrow=classic;html=1;rounded=0;exitX=1.123;exitY=0.496;exitDx=0;exitDy=0;exitPerimeter=0;" parent="1" source="z0-d3LL3kuyv32Uw-McS-4" edge="1">
          <mxGeometry width="50" height="50" relative="1" as="geometry">
            <mxPoint x="590" y="380" as="sourcePoint" />
            <mxPoint x="665" y="380" as="targetPoint" />
          </mxGeometry>
        </mxCell>
        <mxCell id="z0-d3LL3kuyv32Uw-McS-1" value="" style="endArrow=classic;html=1;rounded=0;exitX=1.119;exitY=0.414;exitDx=0;exitDy=0;exitPerimeter=0;" parent="1" source="U7ibFPoD31fuwft3YfZi-60" edge="1">
          <mxGeometry width="50" height="50" relative="1" as="geometry">
            <mxPoint x="346" y="420" as="sourcePoint" />
            <mxPoint x="426" y="420" as="targetPoint" />
          </mxGeometry>
        </mxCell>
        <mxCell id="z0-d3LL3kuyv32Uw-McS-2" value="" style="endArrow=classic;html=1;rounded=0;exitX=0.963;exitY=0.905;exitDx=0;exitDy=0;exitPerimeter=0;" parent="1" source="U7ibFPoD31fuwft3YfZi-65" edge="1">
          <mxGeometry width="50" height="50" relative="1" as="geometry">
            <mxPoint x="410" y="410" as="sourcePoint" />
            <mxPoint x="410" y="420" as="targetPoint" />
          </mxGeometry>
        </mxCell>
        <mxCell id="z0-d3LL3kuyv32Uw-McS-3" value="" style="endArrow=classic;html=1;rounded=0;exitX=0.595;exitY=-0.172;exitDx=0;exitDy=0;exitPerimeter=0;" parent="1" source="U7ibFPoD31fuwft3YfZi-64" edge="1">
          <mxGeometry width="50" height="50" relative="1" as="geometry">
            <mxPoint x="366.9855555555555" y="441.48222222222216" as="sourcePoint" />
            <mxPoint x="386" y="420" as="targetPoint" />
          </mxGeometry>
        </mxCell>
        <mxCell id="z0-d3LL3kuyv32Uw-McS-4" value="Incapacidad de &#xa;comprender &#xa;las necesidades&#xa; del cliente" style="text;spacingTop=-5;fontSize=6;align=center;verticalAlign=middle;points=[];labelBackgroundColor=none;fontColor=#143642;" parent="1" vertex="1">
          <mxGeometry x="553.3733333333331" y="370.0044444444441" width="30" height="19.999999999999886" as="geometry" />
        </mxCell>
        <mxCell id="z0-d3LL3kuyv32Uw-McS-5" value="" style="endArrow=classic;html=1;rounded=0;exitX=-0.005;exitY=0.571;exitDx=0;exitDy=0;exitPerimeter=0;" parent="1" edge="1">
          <mxGeometry width="50" height="50" relative="1" as="geometry">
            <mxPoint x="465.9133333333334" y="491.42222222222233" as="sourcePoint" />
            <mxPoint x="388" y="490" as="targetPoint" />
          </mxGeometry>
        </mxCell>
        <mxCell id="z0-d3LL3kuyv32Uw-McS-6" value="" style="endArrow=classic;html=1;rounded=0;exitX=-0.057;exitY=0.15;exitDx=0;exitDy=0;exitPerimeter=0;" parent="1" source="U7ibFPoD31fuwft3YfZi-70" edge="1">
          <mxGeometry width="50" height="50" relative="1" as="geometry">
            <mxPoint x="467.52333333333286" y="527.9966666666667" as="sourcePoint" />
            <mxPoint x="430" y="490" as="targetPoint" />
          </mxGeometry>
        </mxCell>
        <mxCell id="z0-d3LL3kuyv32Uw-McS-7" value="" style="endArrow=classic;html=1;rounded=0;exitX=-0.016;exitY=0.693;exitDx=0;exitDy=0;exitPerimeter=0;" parent="1" source="U7ibFPoD31fuwft3YfZi-69" edge="1">
          <mxGeometry width="50" height="50" relative="1" as="geometry">
            <mxPoint x="434.0133333333331" y="463.99666666666633" as="sourcePoint" />
            <mxPoint x="414" y="490" as="targetPoint" />
          </mxGeometry>
        </mxCell>
        <mxCell id="z0-d3LL3kuyv32Uw-McS-8" value="" style="endArrow=classic;html=1;rounded=0;exitX=-0.012;exitY=0.475;exitDx=0;exitDy=0;exitPerimeter=0;" parent="1" source="U7ibFPoD31fuwft3YfZi-73" edge="1">
          <mxGeometry width="50" height="50" relative="1" as="geometry">
            <mxPoint x="400" y="430" as="sourcePoint" />
            <mxPoint x="450" y="380" as="targetPoint" />
          </mxGeometry>
        </mxCell>
        <mxCell id="z0-d3LL3kuyv32Uw-McS-9" value="" style="endArrow=classic;html=1;rounded=0;exitX=0.798;exitY=0.004;exitDx=0;exitDy=0;exitPerimeter=0;" parent="1" source="U7ibFPoD31fuwft3YfZi-68" edge="1">
          <mxGeometry width="50" height="50" relative="1" as="geometry">
            <mxPoint x="430" y="430" as="sourcePoint" />
            <mxPoint x="480" y="380" as="targetPoint" />
          </mxGeometry>
        </mxCell>
        <mxCell id="z0-d3LL3kuyv32Uw-McS-10" value="" style="endArrow=classic;html=1;rounded=0;exitX=0.527;exitY=0.132;exitDx=0;exitDy=0;exitPerimeter=0;" parent="1" source="U7ibFPoD31fuwft3YfZi-135" edge="1">
          <mxGeometry width="50" height="50" relative="1" as="geometry">
            <mxPoint x="450" y="430" as="sourcePoint" />
            <mxPoint x="500" y="380" as="targetPoint" />
          </mxGeometry>
        </mxCell>
        <mxCell id="LKPUPwpMn5XzVCk3hOMj-2" value="" style="endArrow=classic;html=1;rounded=0;exitX=-0.333;exitY=1;exitDx=0;exitDy=0;exitPerimeter=0;" edge="1" parent="1" source="U7ibFPoD31fuwft3YfZi-58">
          <mxGeometry width="50" height="50" relative="1" as="geometry">
            <mxPoint x="430" y="360" as="sourcePoint" />
            <mxPoint x="510" y="260" as="targetPoint" />
          </mxGeometry>
        </mxCell>
        <mxCell id="LKPUPwpMn5XzVCk3hOMj-3" value="" style="endArrow=classic;html=1;rounded=0;exitX=-0.033;exitY=-0.007;exitDx=0;exitDy=0;exitPerimeter=0;" edge="1" parent="1" source="U7ibFPoD31fuwft3YfZi-62">
          <mxGeometry width="50" height="50" relative="1" as="geometry">
            <mxPoint x="430" y="360" as="sourcePoint" />
            <mxPoint x="550" y="260" as="targetPoint" />
          </mxGeometry>
        </mxCell>
        <mxCell id="LKPUPwpMn5XzVCk3hOMj-4" value="" style="endArrow=classic;html=1;rounded=0;exitX=0.01;exitY=0.879;exitDx=0;exitDy=0;exitPerimeter=0;" edge="1" parent="1" source="U7ibFPoD31fuwft3YfZi-61">
          <mxGeometry width="50" height="50" relative="1" as="geometry">
            <mxPoint x="430" y="360" as="sourcePoint" />
            <mxPoint x="530" y="260" as="targetPoint" />
          </mxGeometry>
        </mxCell>
        <mxCell id="LKPUPwpMn5XzVCk3hOMj-5" value="" style="endArrow=classic;html=1;rounded=0;exitX=-0.079;exitY=0.5;exitDx=0;exitDy=0;exitPerimeter=0;" edge="1" parent="1">
          <mxGeometry width="50" height="50" relative="1" as="geometry">
            <mxPoint x="667.0033333333336" y="320.00222222222214" as="sourcePoint" />
            <mxPoint x="547" y="320" as="targetPoint" />
          </mxGeometry>
        </mxCell>
        <mxCell id="LKPUPwpMn5XzVCk3hOMj-6" value="" style="endArrow=classic;html=1;rounded=0;exitX=0.31;exitY=-0.207;exitDx=0;exitDy=0;exitPerimeter=0;" edge="1" parent="1" source="U7ibFPoD31fuwft3YfZi-66">
          <mxGeometry width="50" height="50" relative="1" as="geometry">
            <mxPoint x="620" y="330" as="sourcePoint" />
            <mxPoint x="600" y="320" as="targetPoint" />
          </mxGeometry>
        </mxCell>
        <mxCell id="LKPUPwpMn5XzVCk3hOMj-7" value="" style="endArrow=classic;html=1;rounded=0;exitX=0.025;exitY=0.597;exitDx=0;exitDy=0;exitPerimeter=0;" edge="1" parent="1" source="U7ibFPoD31fuwft3YfZi-67">
          <mxGeometry width="50" height="50" relative="1" as="geometry">
            <mxPoint x="659.8544299999999" y="298.8663399999999" as="sourcePoint" />
            <mxPoint x="578" y="319" as="targetPoint" />
          </mxGeometry>
        </mxCell>
        <mxCell id="LKPUPwpMn5XzVCk3hOMj-8" value="" style="endArrow=classic;html=1;rounded=0;exitX=1.077;exitY=0.521;exitDx=0;exitDy=0;exitPerimeter=0;" edge="1" parent="1" source="U7ibFPoD31fuwft3YfZi-59">
          <mxGeometry width="50" height="50" relative="1" as="geometry">
            <mxPoint x="466.70000000000005" y="306.14999999999986" as="sourcePoint" />
            <mxPoint x="534" y="300" as="targetPoint" />
          </mxGeometry>
        </mxCell>
        <mxCell id="LKPUPwpMn5XzVCk3hOMj-9" value="" style="endArrow=classic;html=1;rounded=0;exitX=0.812;exitY=0.066;exitDx=0;exitDy=0;exitPerimeter=0;" edge="1" parent="1" source="U7ibFPoD31fuwft3YfZi-63">
          <mxGeometry width="50" height="50" relative="1" as="geometry">
            <mxPoint x="430" y="360" as="sourcePoint" />
            <mxPoint x="510" y="300" as="targetPoint" />
          </mxGeometry>
        </mxCell>
        <mxCell id="LKPUPwpMn5XzVCk3hOMj-10" value="" style="endArrow=classic;html=1;rounded=0;exitX=1.048;exitY=0.864;exitDx=0;exitDy=0;exitPerimeter=0;" edge="1" parent="1" source="U7ibFPoD31fuwft3YfZi-134">
          <mxGeometry width="50" height="50" relative="1" as="geometry">
            <mxPoint x="430" y="360" as="sourcePoint" />
            <mxPoint x="490" y="300" as="targetPoint" />
          </mxGeometry>
        </mxCell>
        <mxCell id="LKPUPwpMn5XzVCk3hOMj-11" value="" style="endArrow=classic;html=1;rounded=0;exitX=0.886;exitY=0.5;exitDx=0;exitDy=0;exitPerimeter=0;" edge="1" parent="1" source="U7ibFPoD31fuwft3YfZi-111">
          <mxGeometry width="50" height="50" relative="1" as="geometry">
            <mxPoint x="190" y="260" as="sourcePoint" />
            <mxPoint x="289" y="260" as="targetPoint" />
          </mxGeometry>
        </mxCell>
        <mxCell id="LKPUPwpMn5XzVCk3hOMj-12" value="" style="endArrow=classic;html=1;rounded=0;exitX=0.547;exitY=0.936;exitDx=0;exitDy=0;exitPerimeter=0;" edge="1" parent="1" source="U7ibFPoD31fuwft3YfZi-112">
          <mxGeometry width="50" height="50" relative="1" as="geometry">
            <mxPoint x="194.00833333333344" y="237.5799999999998" as="sourcePoint" />
            <mxPoint x="225" y="260" as="targetPoint" />
          </mxGeometry>
        </mxCell>
        <mxCell id="LKPUPwpMn5XzVCk3hOMj-13" value="" style="endArrow=classic;html=1;rounded=0;exitX=1.052;exitY=-0.192;exitDx=0;exitDy=0;exitPerimeter=0;" edge="1" parent="1" source="U7ibFPoD31fuwft3YfZi-25">
          <mxGeometry width="50" height="50" relative="1" as="geometry">
            <mxPoint x="190" y="360" as="sourcePoint" />
            <mxPoint x="250" y="260" as="targetPoint" />
          </mxGeometry>
        </mxCell>
        <mxCell id="LKPUPwpMn5XzVCk3hOMj-14" value="" style="endArrow=classic;html=1;rounded=0;exitX=1.028;exitY=0.393;exitDx=0;exitDy=0;exitPerimeter=0;" edge="1" parent="1" source="U7ibFPoD31fuwft3YfZi-142">
          <mxGeometry width="50" height="50" relative="1" as="geometry">
            <mxPoint x="190" y="360" as="sourcePoint" />
            <mxPoint x="320" y="320" as="targetPoint" />
          </mxGeometry>
        </mxCell>
        <mxCell id="LKPUPwpMn5XzVCk3hOMj-17" value="" style="endArrow=classic;html=1;rounded=0;exitX=0.366;exitY=0.98;exitDx=0;exitDy=0;exitPerimeter=0;" edge="1" parent="1" source="U7ibFPoD31fuwft3YfZi-26">
          <mxGeometry width="50" height="50" relative="1" as="geometry">
            <mxPoint x="190" y="360" as="sourcePoint" />
            <mxPoint x="280" y="320" as="targetPoint" />
          </mxGeometry>
        </mxCell>
        <mxCell id="LKPUPwpMn5XzVCk3hOMj-18" value="" style="endArrow=classic;html=1;rounded=0;exitX=0.033;exitY=-0.007;exitDx=0;exitDy=0;exitPerimeter=0;" edge="1" parent="1" source="U7ibFPoD31fuwft3YfZi-27">
          <mxGeometry width="50" height="50" relative="1" as="geometry">
            <mxPoint x="225.7238888888885" y="340.99777777777786" as="sourcePoint" />
            <mxPoint x="243" y="320" as="targetPoint" />
          </mxGeometry>
        </mxCell>
        <mxCell id="LKPUPwpMn5XzVCk3hOMj-19" value="" style="endArrow=classic;html=1;rounded=0;exitX=-0.014;exitY=0.364;exitDx=0;exitDy=0;exitPerimeter=0;" edge="1" parent="1" source="U7ibFPoD31fuwft3YfZi-33">
          <mxGeometry width="50" height="50" relative="1" as="geometry">
            <mxPoint x="190" y="360" as="sourcePoint" />
            <mxPoint x="300" y="280" as="targetPoint" />
          </mxGeometry>
        </mxCell>
        <mxCell id="LKPUPwpMn5XzVCk3hOMj-20" value="" style="endArrow=classic;html=1;rounded=0;exitX=0.039;exitY=-0.077;exitDx=0;exitDy=0;exitPerimeter=0;" edge="1" parent="1" source="U7ibFPoD31fuwft3YfZi-153">
          <mxGeometry width="50" height="50" relative="1" as="geometry">
            <mxPoint x="190" y="360" as="sourcePoint" />
            <mxPoint x="330" y="280" as="targetPoint" />
          </mxGeometry>
        </mxCell>
        <mxCell id="LKPUPwpMn5XzVCk3hOMj-21" value="" style="endArrow=classic;html=1;rounded=0;exitX=0.052;exitY=1.036;exitDx=0;exitDy=0;exitPerimeter=0;" edge="1" parent="1" source="U7ibFPoD31fuwft3YfZi-152">
          <mxGeometry width="50" height="50" relative="1" as="geometry">
            <mxPoint x="190" y="360" as="sourcePoint" />
            <mxPoint x="320" y="280" as="targetPoint" />
          </mxGeometry>
        </mxCell>
        <mxCell id="LKPUPwpMn5XzVCk3hOMj-22" value="" style="endArrow=classic;html=1;rounded=0;exitX=1.118;exitY=0.5;exitDx=0;exitDy=0;exitPerimeter=0;" edge="1" parent="1" source="U7ibFPoD31fuwft3YfZi-23">
          <mxGeometry width="50" height="50" relative="1" as="geometry">
            <mxPoint x="131.98833333333334" y="390.0000000000002" as="sourcePoint" />
            <mxPoint x="222" y="390" as="targetPoint" />
          </mxGeometry>
        </mxCell>
        <mxCell id="LKPUPwpMn5XzVCk3hOMj-23" value="" style="endArrow=classic;html=1;rounded=0;exitX=1.047;exitY=0.724;exitDx=0;exitDy=0;exitPerimeter=0;" edge="1" parent="1" source="U7ibFPoD31fuwft3YfZi-28">
          <mxGeometry width="50" height="50" relative="1" as="geometry">
            <mxPoint x="190" y="420" as="sourcePoint" />
            <mxPoint x="170" y="390" as="targetPoint" />
          </mxGeometry>
        </mxCell>
        <mxCell id="LKPUPwpMn5XzVCk3hOMj-24" value="" style="endArrow=classic;html=1;rounded=0;exitX=0.766;exitY=-0.2;exitDx=0;exitDy=0;exitPerimeter=0;" edge="1" parent="1" source="U7ibFPoD31fuwft3YfZi-29">
          <mxGeometry width="50" height="50" relative="1" as="geometry">
            <mxPoint x="190" y="420" as="sourcePoint" />
            <mxPoint x="200" y="390" as="targetPoint" />
          </mxGeometry>
        </mxCell>
        <mxCell id="LKPUPwpMn5XzVCk3hOMj-25" value="" style="endArrow=classic;html=1;rounded=0;exitX=1.333;exitY=0.4;exitDx=0;exitDy=0;exitPerimeter=0;" edge="1" parent="1" source="U7ibFPoD31fuwft3YfZi-24">
          <mxGeometry width="50" height="50" relative="1" as="geometry">
            <mxPoint x="190" y="420" as="sourcePoint" />
            <mxPoint x="190" y="460" as="targetPoint" />
          </mxGeometry>
        </mxCell>
        <mxCell id="LKPUPwpMn5XzVCk3hOMj-26" value="" style="endArrow=classic;html=1;rounded=0;exitX=1.051;exitY=0.021;exitDx=0;exitDy=0;exitPerimeter=0;" edge="1" parent="1" source="U7ibFPoD31fuwft3YfZi-30">
          <mxGeometry width="50" height="50" relative="1" as="geometry">
            <mxPoint x="190" y="420" as="sourcePoint" />
            <mxPoint x="170" y="460" as="targetPoint" />
          </mxGeometry>
        </mxCell>
        <mxCell id="LKPUPwpMn5XzVCk3hOMj-27" value="" style="endArrow=classic;html=1;rounded=0;exitX=1.155;exitY=0.643;exitDx=0;exitDy=0;exitPerimeter=0;" edge="1" parent="1" source="U7ibFPoD31fuwft3YfZi-31">
          <mxGeometry width="50" height="50" relative="1" as="geometry">
            <mxPoint x="190" y="420" as="sourcePoint" />
            <mxPoint x="140" y="460" as="targetPoint" />
          </mxGeometry>
        </mxCell>
        <mxCell id="LKPUPwpMn5XzVCk3hOMj-28" value="" style="endArrow=classic;html=1;rounded=0;exitX=-1.537;exitY=0.507;exitDx=0;exitDy=0;exitPerimeter=0;" edge="1" parent="1" source="U7ibFPoD31fuwft3YfZi-34">
          <mxGeometry width="50" height="50" relative="1" as="geometry">
            <mxPoint x="223.99415999999997" y="450" as="sourcePoint" />
            <mxPoint x="194" y="450" as="targetPoint" />
          </mxGeometry>
        </mxCell>
      </root>
    </mxGraphModel>
  </diagram>
  <diagram name="Página-2" id="jJoxGT_0XpmtoY1kku72">
    <mxGraphModel dx="1114" dy="527" grid="1" gridSize="10" guides="1" tooltips="1" connect="1" arrows="1" fold="1" page="1" pageScale="1" pageWidth="827" pageHeight="1169" math="0" shadow="0">
      <root>
        <mxCell id="0" />
        <mxCell id="1" parent="0" />
      </root>
    </mxGraphModel>
  </diagram>
</mxfile>
